<svg width="30" height="30" viewBox="0 0 30 30" fill="none" xmlns="http://www.w3.org/2000/svg">
<path fill-rule="evenodd" clip-rule="evenodd" d="M30 15C30 23.2843 23.2843 30 15 30C6.71573 30 0 23.2843 0 15C0 6.71573 6.71573 0 15 0C23.2843 0 30 6.71573 30 15ZM24 20.3571C24 22.8424 19.9706 25.5 15 25.5C10.0294 25.5 6 22.8424 6 20.3571C6 17.8719 10.0294 16.5 15 16.5C19.9706 16.5 24 17.8719 24 20.3571ZM15 13.5C17.4853 13.5 19.5 11.4853 19.5 9C19.5 6.51472 17.4853 4.5 15 4.5C12.5147 4.5 10.5 6.51472 10.5 9C10.5 11.4853 12.5147 13.5 15 13.5Z" fill="#D9D9D9"/>
</svg>
