<svg width="37" height="55" viewBox="0 0 37 55" fill="none" xmlns="http://www.w3.org/2000/svg">
<path d="M36.7705 47.9688V55H1.02832V48.9575L18.3867 30.0244C20.291 27.876 21.7925 26.0205 22.8911 24.458C23.9897 22.8955 24.7588 21.4917 25.1982 20.2466C25.6621 18.9771 25.894 17.7441 25.894 16.5479C25.894 14.8633 25.5767 13.3862 24.9419 12.1167C24.3315 10.8228 23.4282 9.80957 22.2319 9.07715C21.0356 8.32031 19.583 7.94189 17.874 7.94189C15.8965 7.94189 14.2363 8.36914 12.8936 9.22363C11.5508 10.0781 10.5376 11.2622 9.854 12.7759C9.17041 14.2651 8.82861 15.9741 8.82861 17.9028H0.00292969C0.00292969 14.8022 0.710938 11.9702 2.12695 9.40674C3.54297 6.81885 5.59375 4.76807 8.2793 3.25439C10.9648 1.71631 14.1997 0.947266 17.9839 0.947266C21.5483 0.947266 24.5757 1.54541 27.0659 2.7417C29.5562 3.93799 31.4482 5.63477 32.7422 7.83203C34.0605 10.0293 34.7197 12.6294 34.7197 15.6323C34.7197 17.2925 34.4512 18.9404 33.9141 20.5762C33.377 22.2119 32.6079 23.8477 31.6069 25.4834C30.6304 27.0947 29.4707 28.7183 28.1279 30.354C26.7852 31.9653 25.3081 33.6011 23.6968 35.2612L12.1611 47.9688H36.7705Z" fill="#BCEC30"/>
</svg>
