<svg width="37" height="56" viewBox="0 0 37 56" fill="none" xmlns="http://www.w3.org/2000/svg">
<path d="M12.3921 24.3481H17.6655C19.7163 24.3481 21.4131 23.9941 22.7559 23.2861C24.123 22.5781 25.1362 21.6016 25.7954 20.3564C26.4546 19.1113 26.7842 17.6831 26.7842 16.0718C26.7842 14.3872 26.479 12.9468 25.8687 11.7505C25.2827 10.5298 24.3794 9.58984 23.1587 8.93066C21.9624 8.27148 20.4365 7.94189 18.5811 7.94189C17.0186 7.94189 15.6025 8.25928 14.333 8.89404C13.0879 9.50439 12.0991 10.3833 11.3667 11.5308C10.6343 12.6538 10.2681 13.9966 10.2681 15.5591H1.40576C1.40576 12.7271 2.15039 10.2124 3.63965 8.01514C5.12891 5.81787 7.15527 4.09668 9.71875 2.85156C12.3066 1.58203 15.2119 0.947266 18.4346 0.947266C21.877 0.947266 24.8799 1.521 27.4434 2.66846C30.0312 3.7915 32.0454 5.47607 33.4858 7.72217C34.9263 9.96826 35.6465 12.7515 35.6465 16.0718C35.6465 17.5854 35.2925 19.1235 34.5845 20.686C33.8765 22.2485 32.8267 23.6768 31.4351 24.9707C30.0435 26.2402 28.3101 27.2778 26.2349 28.0835C24.1597 28.8647 21.7549 29.2554 19.0205 29.2554H12.3921V24.3481ZM12.3921 31.2329V26.3989H19.0205C22.1455 26.3989 24.8066 26.7651 27.0039 27.4976C29.2256 28.23 31.0322 29.2432 32.4238 30.5371C33.8154 31.8066 34.8286 33.2593 35.4634 34.895C36.1226 36.5308 36.4521 38.2642 36.4521 40.0952C36.4521 42.5854 36.0005 44.8071 35.0972 46.7603C34.2183 48.689 32.9609 50.3247 31.3252 51.6675C29.6895 53.0103 27.7729 54.0234 25.5757 54.707C23.4028 55.3906 21.0347 55.7324 18.4712 55.7324C16.1763 55.7324 13.979 55.415 11.8794 54.7803C9.77979 54.1455 7.8999 53.2056 6.23975 51.9604C4.57959 50.6909 3.26123 49.1162 2.28467 47.2363C1.33252 45.332 0.856445 43.1348 0.856445 40.6445H9.68213C9.68213 42.2314 10.0483 43.6353 10.7808 44.856C11.5376 46.0522 12.5874 46.9922 13.9302 47.6758C15.2974 48.3594 16.8599 48.7012 18.6177 48.7012C20.4731 48.7012 22.0723 48.3716 23.415 47.7124C24.7578 47.0532 25.7832 46.0767 26.4912 44.7827C27.2236 43.4888 27.5898 41.9263 27.5898 40.0952C27.5898 38.02 27.187 36.3354 26.3813 35.0415C25.5757 33.7476 24.4282 32.7954 22.939 32.1851C21.4497 31.5503 19.6919 31.2329 17.6655 31.2329H12.3921Z" fill="#BCEC30"/>
</svg>
